<?xml version="1.0" encoding="UTF-8" standalone="no"?><!DOCTYPE svg PUBLIC "-//W3C//DTD SVG 1.1//EN" "http://www.w3.org/Graphics/SVG/1.1/DTD/svg11.dtd"><svg width="100%" height="100%" viewBox="0 0 123 123" version="1.1" xmlns="http://www.w3.org/2000/svg" xmlns:xlink="http://www.w3.org/1999/xlink" xml:space="preserve" xmlns:serif="http://www.serif.com/" style="fill-rule:evenodd;clip-rule:evenodd;stroke-linejoin:round;stroke-miterlimit:2;"><rect x="-0" y="-0" width="122.88" height="122.88" style="fill:#0172ad;"/><g><path d="M94.003,37.167c-0,-1.208 -0.981,-2.188 -2.188,-2.188l-60.768,-0c-1.208,-0 -2.188,0.98 -2.188,2.188l-0,4.377c-0,1.208 0.98,2.188 2.188,2.188l60.768,0c1.207,0 2.188,-0.98 2.188,-2.188l-0,-4.377Z" style="fill:#fff;"/><path d="M94.021,59.252c0,-1.208 -0.98,-2.189 -2.188,-2.189l-60.768,0c-1.207,0 -2.188,0.981 -2.188,2.189l0,4.376c0,1.208 0.981,2.189 2.188,2.189l60.768,-0c1.208,-0 2.188,-0.981 2.188,-2.189l0,-4.376Z" style="fill:#fff;"/><path d="M94.021,81.336c0,-1.208 -0.98,-2.188 -2.188,-2.188l-60.768,-0c-1.207,-0 -2.188,0.98 -2.188,2.188l0,4.377c0,1.208 0.981,2.188 2.188,2.188l60.768,0c1.208,0 2.188,-0.98 2.188,-2.188l0,-4.377Z" style="fill:#fff;"/></g></svg>